<svg xmlns="http://www.w3.org/2000/svg" version="1.1" xmlns:xlink="http://www.w3.org/1999/xlink" xmlns:svgjs="http://svgjs.com/svgjs" width="100%" height="100%" viewBox="0 0 1000 600"><rect width="1000" height="600" x="0" y="0" fill="#209cee"/><g><rect width="333.3333333333333" height="333.3333333333333" y="240.1814875610813" fill="white" transform="matrix(0.573501559067446,0,0,0.573501559067446,0,66.67192411540042)" x="217.9593048095703"/><path d="M356.2558680530867 481.84815533824985L313.4862627425547 359.85061354273523Q309.0744982979153 347.0748790051336 304.111263297696 342.3261047765287Q299.1480282974767 337.5773305479238 289.221558297038 336.68885020837837L289.221558297038 336.68885020837837L289.221558297038 332.2770857637389Q290.3244994081979 332.2770857637389 292.4078326181665 332.06262499212454Q294.4911658281351 331.8481642205101 296.6970480504548 331.8481642205101L296.6970480504548 331.8481642205101Q308.82940027321314 331.8481642205101 318.66395851438847 337.36286977630937Q328.467879502476 342.8775753321086 334.4421438545919 359.85061354273523L334.4421438545919 359.85061354273523L363.97645583120567 445.02217712674593L387.59777796187916 375.0773283273587L382.2975331776943 359.85061354273523Q377.8857687330549 347.0748790051336 372.9225337328356 342.3261047765287Q367.9592987326163 337.5773305479238 358.03282873217756 336.68885020837837L358.03282873217756 336.68885020837837L358.03282873217756 332.2770857637389Q359.1357698433374 332.2770857637389 361.21910305330607 332.06262499212454Q363.33307351636245 331.8481642205101 365.53895573868215 331.8481642205101L365.53895573868215 331.8481642205101Q377.67130796144045 331.8481642205101 387.47522894952806 337.36286977630937Q397.3097871907034 342.8775753321086 403.2534142897315 359.85061354273523L403.2534142897315 359.85061354273523L432.81836351943303 445.02217712674593L470.5328220704824 334.0540464428298L480.03037052769224 334.0540464428298L429.5095401859535 481.84815533824985L425.0977757413141 481.84815533824985L392.43846394974736 388.986641229208L360.6676324977261 481.84815533824985L356.2558680530867 481.84815533824985Z " fill="#209cee" transform="matrix(0.573501559067446,0,0,0.573501559067446,0,66.67192411540042)"/><path d="M680.088014962106 445.46202363079914L675.7769589288623 445.46202363079914L649.1886755467995 366.4603747919317Q646.6721739388774 358.58083697040496 645.1870254489561 354.0428832512011Q643.7018769590348 349.5255565943572 642.9593027140743 346.2458536791144L642.9593027140743 346.2458536791144Q640.8759694157125 346.4108701779946 638.7926361173506 346.4108701779946Q636.7093028189888 346.4108701779946 634.6259695206271 346.55525961451474L634.6259695206271 346.55525961451474L634.6259695206271 340.01648084638913L670.723328650658 340.01648084638913L670.723328650658 344.9257216880733Q662.1012165841705 345.3588899976337 660.4097974706491 348.7829823493966Q658.6977512947676 352.1864476387995 661.0698634661696 361.09733857832714L661.0698634661696 361.09733857832714Q663.5863650740919 370.9158202616955 666.5566620539344 378.7747310208622Q669.5269590337768 386.65426884238894 672.3528665770993 395.7095492184367L672.3528665770993 395.7095492184367Q674.4361998754612 402.3927174230824 676.581414360903 408.0445325097272Q678.7472559087048 413.675720534012 680.9749786435866 420.66829467405796L680.9749786435866 420.66829467405796L681.2637575166269 420.66829467405796Q682.0063317615875 418.1311660037758 682.8314142559882 415.3052584604534Q683.635869688029 412.499977979491 684.5434604318698 409.8184598726887Q685.4304241133505 407.13694176588643 686.1729983583111 404.8473378439245Q686.9155726032718 402.5371068596025 687.3487409128321 401.05195836968124L687.3487409128321 401.05195836968124Q691.5154075095556 387.8300113969099 695.5995658568391 375.43314691853936Q699.6837242041227 363.03628244016875 702.7984106204854 353.60971494164073Q705.913097036848 344.18314744311266 707.109466653729 339.72770197334887L707.109466653729 339.72770197334887L711.853690996533 339.72770197334887Q713.1944500499342 344.616315752673 715.7315787202164 352.1864476387995Q718.2480803281385 359.777206587286 721.073987871461 368.08991271837306Q723.8998954147833 376.40261884946017 726.3338887732655 383.8283612990665Q728.7885091941075 391.25410374867283 730.2736576840288 395.7095492184367L730.2736576840288 395.7095492184367Q732.3569909823906 402.3927174230824 734.6672219667125 408.931496191208Q736.9568258886745 415.47027495933355 738.8957697505161 422.4422220370195L738.8957697505161 422.4422220370195L739.3289380600766 422.4422220370195Q740.6696971134777 418.1311660037758 742.237353852839 413.24255222445163Q743.7843835298403 408.3333113827674 745.4345485186417 403.2796811045631L745.4345485186417 403.2796811045631Q749.291809179965 392.2854568666737 751.7464296008071 384.8597144170674Q754.1804229592892 377.43397196746105 755.7480796986505 372.5453581881369Q757.3157364380119 367.6361173464527 758.4295978054528 364.0057543710896Q759.5434591728938 360.35476433336646 760.7192017274148 356.95129904396356L760.7192017274148 356.95129904396356Q761.6061654088955 354.4141703736814 762.7200267763365 351.52638164327897Q763.8338881437774 348.6385929128765 765.3190366336987 346.1014642425943L765.3190366336987 346.1014642425943Q762.3487396538562 346.2458536791144 759.3784426740136 346.3283619285545Q756.408145694171 346.4108701779946 753.4378487143285 346.55525961451474L753.4378487143285 346.55525961451474L753.4378487143285 340.01648084638913L783.5946138846743 340.01648084638913L783.5946138846743 344.9257216880733Q778.54098360647 345.5032794341538 775.6531948760676 347.1534444229552Q772.744779083305 348.7829823493966 770.5170563484231 353.2384278191604Q768.2893336135412 357.69387328892424 765.1746471971785 366.89354310149207L765.1746471971785 366.89354310149207Q758.3470895560127 387.0874371519493 751.8908190373272 406.621265206886Q745.4345485186417 426.1550932618227 738.4419743785958 445.46202363079914L738.4419743785958 445.46202363079914L733.9865289088319 445.46202363079914L711.4205226869726 381.0024537557441Q710.0797636335715 377.14519309442085 708.8215128296105 373.4323218696176Q707.5632620256494 369.71945064481446 706.2225029722482 366.0065794200113L706.2225029722482 366.0065794200113Q705.0261333553672 369.71945064481446 703.7678825514062 373.4323218696176Q702.509631747445 377.14519309442085 701.313262130564 380.858064319224L701.313262130564 380.858064319224L680.088014962106 445.46202363079914ZM818.0418080259037 446.3489873122799L818.0418080259037 446.3489873122799Q807.810785095335 446.3489873122799 799.5599601513279 441.5222547200358Q791.3091352073209 436.69552212779166 786.5649108645168 427.8671394377041Q781.8206865217128 419.01812968525655 781.8206865217128 406.9925523293663L781.8206865217128 406.9925523293663Q781.8206865217128 396.59651289991746 786.4824026150768 387.54123252386967Q791.1647457708008 378.485952147822 799.6424684007679 372.9166453106172Q808.0995639683752 367.34733847341244 819.2381776427848 367.34733847341244L819.2381776427848 367.34733847341244Q825.46755047551 367.34733847341244 830.8924678761947 369.3481635223342Q836.3173852768793 371.34898857125586 840.4840518736029 375.43314691853936Q844.6300914079663 379.51730526582287 847.0022035793684 385.6847969114681Q849.3949428131305 391.85228855711335 849.3949428131305 400.16499468820047L849.3949428131305 400.16499468820047L797.1053397304859 401.05195836968124Q797.1053397304859 412.33496148061084 799.5599601513279 420.87456529765814Q802.0145805721701 429.41416911470543 807.5013791599347 434.09651227042946Q813.0088048100595 438.7788554261534 821.6102898141868 438.7788554261534L821.6102898141868 438.7788554261534Q826.2101247204707 438.7788554261534 831.0368573127148 437.149317499712Q835.8635899049589 435.5197795732706 840.0302565016825 432.69387202994824Q844.196923098406 429.8679644866258 846.7134247063282 426.4438721348629L846.7134247063282 426.4438721348629L850.2819064946112 429.41416911470543Q846.2596293344078 435.6641690097908 840.628441310123 439.37704023459395Q834.9766262234781 443.0899114593971 829.0360322637931 444.7194493858385Q823.095438304108 446.3489873122799 818.0418080259037 446.3489873122799ZM797.5591351024062 394.8225855369559L797.5591351024062 394.8225855369559L835.4304215953986 394.8225855369559Q835.4304215953986 389.48017638571133 833.8627648560372 384.4884272945871Q832.3157351790359 379.51730526582287 828.7472533907528 376.32011060002014Q825.1787716024699 373.14354299657737 819.3825670793049 373.14354299657737L819.3825670793049 373.14354299657737Q810.7810820751776 373.14354299657737 805.0467587390926 378.25905446186175Q799.3330624653677 383.37456592714614 797.5591351024062 394.8225855369559ZM928.6853705250381 443.97687514087784L907.4601233565801 443.97687514087784Q907.0063279846597 441.4603735329557 906.8619385481395 439.5214296711141Q906.7175491116194 437.5824858092724 906.4081431762191 435.5197795732706L906.4081431762191 435.5197795732706Q901.3751399603748 440.552782789115 895.4964271877698 443.4611985818774Q889.6383414775248 446.3489873122799 883.0995627093993 446.3489873122799L883.0995627093993 446.3489873122799Q871.8165595984697 446.3489873122799 866.3091339483449 441.23347584699553Q860.8223353605802 436.09733731935114 860.8223353605802 428.6715948697448L860.8223353605802 428.6715948697448Q860.8223353605802 421.84403722857894 865.0508831443838 416.8729151998147Q869.2794309281875 411.9017931710505 876.0451073822733 408.70459850524776Q882.810783836359 405.50740383944503 890.7522028449657 403.9603741624437Q898.6936218535725 402.3927174230824 906.1193643031788 402.5371068596025L906.1193643031788 402.5371068596025L906.1193643031788 393.33743704703465Q906.1193643031788 388.1394173323102 905.2324006216982 383.5395824260263Q904.3454369402174 378.91912045738235 901.3751399603748 375.9488234775398Q898.4048429805323 372.97852649769726 891.8660642124066 372.8341370611771L891.8660642124066 372.8341370611771Q887.5550081791631 372.689747624657 883.0170544599591 374.4636749876185Q878.4997278031153 376.25822941294007 876.4163945047535 380.56928544618376L876.4163945047535 380.56928544618376Q877.6127641216345 381.74502800070474 877.9840512441149 383.31268474006606Q878.3553383665952 384.8597144170674 878.3553383665952 386.2004734704685L878.3553383665952 386.2004734704685Q878.3553383665952 387.9950278957901 876.870189876674 390.28463181775203Q875.3850413867526 392.59486280207403 871.6721701619495 392.4504733655539L871.6721701619495 392.4504733655539Q868.5368566832268 392.4504733655539 866.9073187567855 390.28463181775203Q865.277780830344 388.1394173323102 865.277780830344 385.16912035246764L865.277780830344 385.16912035246764Q865.277780830344 380.11549007426333 869.0731603045872 376.11383997641997Q872.8479127164705 372.0915628162165 879.5310809211162 369.71945064481446Q886.2142491257619 367.34733847341244 894.6919717557291 367.34733847341244L894.6919717557291 367.34733847341244Q907.1507174211797 367.34733847341244 913.0913113808649 373.94799842861806Q919.0319053405499 380.56928544618376 918.8875159040299 394.8225855369559L918.8875159040299 394.8225855369559Q918.8875159040299 400.3093841247206 918.8875159040299 405.8786909619254Q918.8875159040299 411.4479977991301 918.8256347169497 417.01730463633487Q918.7431264675097 422.5866114735396 918.7431264675097 428.23842656018445L918.7431264675097 428.23842656018445Q918.7431264675097 430.6105387315864 918.5987370309895 432.9826509029885Q918.4543475944695 435.3547630743905 918.1449416590691 438.32506005423306L918.1449416590691 438.32506005423306Q920.8264597658715 438.1806706177129 923.4254696232337 438.0362811811928Q926.0244794805959 437.89189174467265 928.6853705250381 437.74750230815255L928.6853705250381 437.74750230815255L928.6853705250381 443.97687514087784ZM906.1193643031788 407.5907371378068L906.1193643031788 407.5907371378068Q901.0657340249745 407.73512657432696 895.4964271877698 408.84898794176786Q889.927120350565 409.9628493092089 885.244777194841 412.19057204409074Q880.5830611014771 414.4182947789726 877.6746453087146 418.06928481669576Q874.7868565783122 421.69964779205884 874.9312460148323 426.8976675067833L874.9312460148323 426.8976675067833Q875.2200248878726 432.384466094548 878.5616089901954 435.14849245079034Q881.9031930925182 437.89189174467265 886.5236550611622 437.89189174467265L886.5236550611622 437.89189174467265Q892.6086384573673 437.89189174467265 897.1259651142112 435.5816607603507Q901.6639188334151 433.29205683838876 906.1193643031788 429.1253902416652L906.1193643031788 429.1253902416652Q905.9749748666588 427.49585231522383 905.9749748666588 425.55690845338216Q905.9749748666588 423.6385916539005 905.9749748666588 421.55525835553874L905.9749748666588 421.55525835553874Q905.9749748666588 420.81268411057806 906.0368560537388 416.79040695037463Q906.1193643031788 412.78875685253126 906.1193643031788 407.5907371378068ZM965.8140827730699 446.3489873122799L965.8140827730699 446.3489873122799Q962.410617483667 446.3489873122799 958.8421356953838 445.37951538135906Q955.2736539071009 444.43067051279826 952.2414757401782 441.6047629694758Q949.1886705108957 438.7788554261534 947.4147431479341 433.3539380254688Q945.6201887226126 427.9290206247842 945.6201887226126 419.01812968525655L945.6201887226126 419.01812968525655L945.9295946580129 375.9488234775398L934.4815750482031 376.11383997641997L934.4815750482031 369.71945064481446Q938.3388357095264 369.57506120829436 942.3611128697298 366.831661914412Q946.3627629675732 364.0676355581696 949.559957633376 359.3234112153656Q952.7571522991786 354.57918687256154 953.9328948536997 348.92737178591676L953.9328948536997 348.92737178591676L958.986525131904 348.92737178591676L958.986525131904 369.71945064481446L983.9452705875253 369.71945064481446L983.9452705875253 375.51565516797945L958.986525131904 375.8044340410197L958.6977462588638 417.0998128857749Q958.6977462588638 423.78298109042066 959.8116076263047 428.46532424614463Q960.9254689937457 433.1270403395086 963.4419706016679 435.5197795732706Q965.97909927195 437.89189174467265 969.9807493697936 437.89189174467265L969.9807493697936 437.89189174467265Q974.147415966517 437.89189174467265 977.7777789418801 435.5197795732706Q981.4081419172433 433.1270403395086 984.2340494605655 428.9810008051451L984.2340494605655 428.9810008051451L988.256326620769 432.2400766580279Q984.9766237055262 437.149317499712 981.7794290397235 439.97522504303447Q978.6028614362808 442.78050552399685 975.6325644564382 444.2037728268381Q972.6622674765957 445.6064130673193 970.1251388063135 445.9777001897996Q967.6086371983914 446.3489873122799 965.8140827730699 446.3489873122799ZM1043.0418042489757 443.97687514087784L1043.0418042489757 439.5214296711141Q1047.6622662176196 439.5214296711141 1049.4361935805814 437.2111986867921Q1051.2101209435427 434.92159476483016 1051.519526878943 430.83743641754666Q1051.8083057519832 426.75327807026315 1051.8083057519832 421.41086891901864L1051.8083057519832 421.41086891901864L1051.8083057519832 400.6187900601209Q1051.8083057519832 387.8300113969099 1047.7241474046998 381.4562491276645Q1043.6399890574162 375.061859796059 1034.8734875544087 375.2062492325792L1034.8734875544087 375.2062492325792Q1029.3866889666442 375.3712657314593 1024.1061610024797 377.88776733938147Q1018.8462601006752 380.4042689473036 1015.5665571854324 384.426546107507L1015.5665571854324 384.426546107507L1015.5665571854324 428.23842656018445Q1015.5665571854324 431.208723540027 1015.4221677489122 433.49832746198894Q1015.2777783123921 435.8085584463109 1014.8239829404718 438.32506005423306L1014.8239829404718 438.32506005423306Q1017.2167221742337 438.1806706177129 1019.5063260961957 438.1187894306329Q1021.8165570805177 438.0362811811928 1024.1886692519197 437.89189174467265L1024.1886692519197 437.89189174467265L1024.1886692519197 443.97687514087784L993.8875146450538 443.97687514087784L993.8875146450538 439.5214296711141Q998.4873495513377 439.5214296711141 1000.2819039766594 437.2111986867921Q1002.0558313396208 434.92159476483016 1002.4271184621011 430.83743641754666Q1002.7984055845814 426.75327807026315 1002.7984055845814 421.41086891901864L1002.7984055845814 421.41086891901864L1002.7984055845814 351.1550945207986Q1002.7984055845814 348.7829823493966 1002.8809138340215 346.61714080159476Q1002.9427950211016 344.4719263161529 1003.2522009565018 341.5016293363104L1003.2522009565018 341.5016293363104Q1000.5706828496996 341.64601877283053 997.9716729923373 341.79040820935063Q995.372663134975 341.9554247082308 992.7117720905328 342.0998141447509L992.7117720905328 342.0998141447509L992.7117720905328 335.84981424966554Q999.2299237962984 335.84981424966554 1002.8809138340215 335.2722565035851Q1006.5112768093845 334.67407169514456 1008.3677124217862 333.7871080136638Q1010.2241480341877 332.87951726982305 1011.2761282145486 331.8481641518222L1011.2761282145486 331.8481641518222L1015.5665571854324 331.8481641518222L1015.5665571854324 377.14519309442085Q1018.8462601006752 374.3192855510984 1022.9304184479586 372.17407106565656Q1027.0145767952422 370.0082295178547 1031.3875140155658 368.6880975268136Q1035.7810782982497 367.34733847341244 1039.927117832613 367.34733847341244L1039.927117832613 367.34733847341244Q1052.8602859323441 367.34733847341244 1058.573982206069 375.43314691853936Q1064.287678479794 383.5395824260263 1064.432067916314 400.6187900601209L1064.432067916314 400.6187900601209L1064.576457352834 428.23842656018445Q1064.576457352834 431.208723540027 1064.514576165754 433.49832746198894Q1064.432067916314 435.8085584463109 1063.9988996067536 438.32506005423306L1063.9988996067536 438.32506005423306Q1066.3710117781557 438.1806706177129 1068.6606157001177 438.1187894306329Q1070.9708466844397 438.0362811811928 1073.3429588558415 437.89189174467265L1073.3429588558415 437.89189174467265L1073.3429588558415 443.97687514087784L1043.0418042489757 443.97687514087784ZM1120.2695257248818 446.3489873122799L1120.2695257248818 446.3489873122799Q1110.038502794313 446.3489873122799 1101.787677850306 441.5222547200358Q1093.536852906299 436.69552212779166 1088.7926285634949 427.8671394377041Q1084.0484042206908 419.01812968525655 1084.0484042206908 406.9925523293663L1084.0484042206908 406.9925523293663Q1084.0484042206908 396.59651289991746 1088.7101203140548 387.54123252386967Q1093.3924634697787 378.485952147822 1101.870186099746 372.9166453106172Q1110.3272816673532 367.34733847341244 1121.465895341763 367.34733847341244L1121.465895341763 367.34733847341244Q1127.695268174488 367.34733847341244 1133.1201855751726 369.3481635223342Q1138.5451029758574 371.34898857125586 1142.7117695725808 375.43314691853936Q1146.8578091069444 379.51730526582287 1149.2299212783464 385.6847969114681Q1151.6226605121085 391.85228855711335 1151.6226605121085 400.16499468820047L1151.6226605121085 400.16499468820047L1099.3330574294637 401.05195836968124Q1099.3330574294637 412.33496148061084 1101.787677850306 420.87456529765814Q1104.242298271148 429.41416911470543 1109.7290968589127 434.09651227042946Q1115.2365225090375 438.7788554261534 1123.8380075131647 438.7788554261534L1123.8380075131647 438.7788554261534Q1128.4378424194488 438.7788554261534 1133.2645750116928 437.149317499712Q1138.091307603937 435.5197795732706 1142.2579742006606 432.69387202994824Q1146.4246407973842 429.8679644866258 1148.9411424053062 426.4438721348629L1148.9411424053062 426.4438721348629L1152.5096241935894 429.41416911470543Q1148.487347033386 435.6641690097908 1142.856159009101 439.37704023459395Q1137.2043439224562 443.0899114593971 1131.2637499627713 444.7194493858385Q1125.323156003086 446.3489873122799 1120.2695257248818 446.3489873122799ZM1099.7868528013842 394.8225855369559L1099.7868528013842 394.8225855369559L1137.6581392943765 394.8225855369559Q1137.6581392943765 389.48017638571133 1136.0904825550151 384.4884272945871Q1134.5434528780138 379.51730526582287 1130.9749710897308 376.32011060002014Q1127.406489301448 373.14354299657737 1121.610284778283 373.14354299657737L1121.610284778283 373.14354299657737Q1113.0087997741555 373.14354299657737 1107.2744764380707 378.25905446186175Q1101.5607801643457 383.37456592714614 1099.7868528013842 394.8225855369559ZM1164.8239804225198 443.97687514087784L1164.8239804225198 439.5214296711141Q1169.4444423911636 439.5214296711141 1171.2183697541252 437.2111986867921Q1172.9922971170868 434.92159476483016 1173.301703052487 430.83743641754666Q1173.5904819255272 426.75327807026315 1173.5904819255272 421.41086891901864L1173.5904819255272 421.41086891901864L1173.5904819255272 387.54123252386967Q1173.5904819255272 385.16912035246764 1173.6729901749673 382.7970081810656Q1173.7348713620474 380.4042689473036 1174.1886667339677 377.88776733938147L1174.1886667339677 377.88776733938147Q1171.5071486271654 378.03215677590157 1168.9081387698031 378.11466502534165Q1166.3091289124409 378.1765462124217 1163.648237867999 378.34156271130183L1163.648237867999 378.34156271130183L1163.648237867999 372.23595225273664L1168.2480727742827 372.23595225273664Q1174.6424621058882 372.23595225273664 1177.0764554643702 370.9777014487756Q1179.5310758852124 369.71945064481446 1181.1606138116535 368.2343021548932L1181.1606138116535 368.2343021548932L1185.4716698448974 368.2343021548932Q1185.7810757802977 370.60641432629524 1185.9254652168179 374.0923878651382Q1186.0698546533379 377.5989884663412 1186.214244089858 382.9413976175858L1186.214244089858 382.9413976175858Q1188.44196682474 379.2285263927826 1192.2992274860633 375.66004460449955Q1196.1771152097467 372.0915628162165 1201.0038478019906 369.71945064481446Q1205.8305803942349 367.34733847341244 1211.1729895454794 367.34733847341244L1211.1729895454794 367.34733847341244Q1215.319029079843 367.34733847341244 1218.4543425585657 369.57506120829436Q1221.5690289749282 371.8027839431762 1221.5690289749282 376.6913977225004L1221.5690289749282 376.6913977225004Q1221.5690289749282 377.88776733938147 1220.8264547299677 379.5998135152629Q1220.0838804850068 381.3118596911444 1218.4543425585657 382.57011049510544Q1216.8041775697643 383.8283612990665 1214.1432865253219 383.8283612990665L1214.1432865253219 383.8283612990665Q1210.863583610079 383.6839718625464 1208.9452668105973 381.2293514417043Q1207.006322948756 378.7747310208622 1207.4601183206762 375.51565516797945L1207.4601183206762 375.51565516797945Q1203.747247095873 375.3712657314593 1199.8074781851096 377.43397196746105Q1195.8677092743462 379.51730526582287 1192.4642439849433 383.16829530354596Q1189.0401516331804 386.79865827890904 1186.358633526378 391.70789912059325L1186.358633526378 391.70789912059325L1186.5236500252583 428.23842656018445Q1186.5236500252583 431.208723540027 1186.4411417758183 433.49832746198894Q1186.358633526378 435.8085584463109 1185.9254652168179 438.32506005423306L1185.9254652168179 438.32506005423306Q1188.29757738822 438.1806706177129 1190.607808372542 438.1187894306329Q1192.8974122945037 438.0362811811928 1195.2695244659058 437.89189174467265L1195.2695244659058 437.89189174467265L1195.2695244659058 443.97687514087784L1164.8239804225198 443.97687514087784ZM1288.5451004579054 443.97687514087784L1260.7810745213217 443.97687514087784L1260.7810745213217 439.0676342991937Q1265.2365199910855 439.0676342991937 1267.6086321624875 436.69552212779166Q1269.9807443338893 434.32340995638964 1271.5484010732507 430.15674335966605Q1273.0954307502523 426.0107038253025 1275.178764048614 420.50327817517785L1275.178764048614 420.50327817517785L1305.7686975285203 337.1905733030667L1309.3371793168033 337.1905733030667L1342.4642414669916 421.69964779205884Q1343.6399840215124 424.81433420842154 1345.1251325114338 429.72357505010575Q1346.6102810013551 434.6121888294299 1346.3215021283147 438.0362811811928L1346.3215021283147 438.0362811811928Q1348.838003736237 437.89189174467265 1351.375132406519 437.74750230815255Q1353.8916340144413 437.5824858092724 1356.4081356223635 437.4380963727523L1356.4081356223635 437.4380963727523L1356.4081356223635 443.97687514087784L1322.4147368530544 443.97687514087784L1322.4147368530544 439.0676342991937Q1328.0459248773393 438.9232448626735 1329.8404793026607 436.5511326912715Q1331.6144066656223 434.1790205198695 1331.1606112937018 430.89931760462673Q1330.7274429841416 427.64024175174393 1329.6754628037804 424.95872364494164L1329.6754628037804 424.95872364494164L1324.477443089056 411.0148294895697L1285.863582351103 411.9017931710505L1280.6655626363788 427.78463118826403Q1279.634209518378 431.3531129765471 1278.8091270239772 433.43644627490886Q1278.0046715919364 435.5197795732706 1276.9526914115754 438.0362811811928L1276.9526914115754 438.0362811811928Q1279.922988391418 437.89189174467265 1282.8314041841804 437.74750230815255Q1285.719192914583 437.5824858092724 1288.5451004579054 437.4380963727523L1288.5451004579054 437.4380963727523L1288.5451004579054 443.97687514087784ZM1298.652361014314 375.66004460449955L1288.0913050859851 405.50740383944503L1322.4147368530544 405.50740383944503L1311.8536809247253 377.14519309442085Q1310.224142998284 372.5453581881369 1308.5120968224026 368.00740446893303Q1306.820677708881 363.49007781208917 1305.1705127200796 358.8696158434452L1305.1705127200796 358.8696158434452L1304.8817338470394 358.8696158434452Q1303.3965853571183 363.03628244016875 1301.8289286177567 367.20294903689233Q1300.2818989407554 371.34898857125586 1298.652361014314 375.66004460449955L1298.652361014314 375.66004460449955ZM1390.1333825809922 481.8481616338702L1359.8322279741262 481.8481616338702L1359.8322279741262 477.3927161641064Q1364.43206288041 477.3927161641064 1366.2266173057317 475.0824851797844Q1368.0005446686932 472.7928812578225 1368.2893235417334 468.708722910539Q1368.5987294771337 464.6245645632555 1368.5987294771337 459.2821554120109L1368.5987294771337 459.2821554120109L1368.8875083501741 387.54123252386967Q1368.8875083501741 385.16912035246764 1368.970016599614 382.7970081810656Q1369.0318977866943 380.4042689473036 1369.4856931586144 377.88776733938147L1369.4856931586144 377.88776733938147Q1366.804175051812 378.03215677590157 1364.20516519445 378.1765462124217Q1361.6061553370876 378.34156271130183 1358.9452642926456 378.485952147822L1358.9452642926456 378.485952147822L1358.9452642926456 372.23595225273664Q1365.4840430607712 372.23595225273664 1368.825627163094 371.6583945066561Q1372.1672112654169 371.0602096982156 1373.714240942418 370.1732460167349Q1375.2818976817796 369.2656552728941 1376.3132507997805 368.2343021548932L1376.3132507997805 368.2343021548932L1380.768696269544 368.2343021548932Q1380.9130857060643 369.71945064481446 1381.0781022049443 371.7202756937362Q1381.2224916414646 373.7211007426579 1381.3668810779845 376.25822941294007L1381.3668810779845 376.25822941294007Q1385.8223265477484 372.23595225273664 1391.9898181933938 369.80195889425454Q1398.157309839039 367.34733847341244 1404.3866826717642 367.34733847341244L1404.3866826717642 367.34733847341244Q1413.0087947382517 367.34733847341244 1420.4345371878578 371.8027839431762Q1427.8602796374644 376.25822941294007 1432.4601145437482 384.4884272945871Q1437.0599494500323 392.73925223859413 1437.0599494500323 404.1666447860439L1437.0599494500323 404.1666447860439Q1437.0599494500323 416.79040695037463 1431.7794214858677 426.2994826983428Q1426.5195205840635 435.8085584463109 1417.8974085175757 441.0890864104754Q1409.2959235134485 446.3489873122799 1399.18866295704 446.3489873122799L1399.18866295704 446.3489873122799Q1393.9906432423154 446.3489873122799 1389.6177060219916 445.09073650831886Q1385.224141739308 443.83248570435774 1381.3668810779845 441.4603735329557L1381.3668810779845 441.4603735329557L1381.3668810779845 466.10971305317673Q1381.3668810779845 469.08001003301933 1381.2843728285445 471.3696139549812Q1381.2224916414646 473.6798449393032 1380.768696269544 476.1963465472254L1380.768696269544 476.1963465472254Q1383.140808440946 476.05195711070525 1385.4510394252682 475.9900759236252Q1387.7612704095902 475.9075676741851 1390.1333825809922 475.763178237665L1390.1333825809922 475.763178237665L1390.1333825809922 481.8481616338702ZM1398.8998840839995 440.4083933525948L1398.8998840839995 440.4083933525948Q1406.0162205982058 440.4083933525948 1411.15235912585 436.03545613227107Q1416.2678705911346 431.6418918495873 1419.0112698850169 424.00987877638084Q1421.7546691788991 416.3572386408143 1421.7546691788991 406.5593840198059L1421.7546691788991 406.5593840198059Q1421.7546691788991 398.53545676175906 1419.4650652569374 391.1715954992328Q1417.1548342726153 383.8283612990665 1412.1837122438508 379.2285263927826Q1407.2125902150867 374.62869148649867 1399.0442735205197 374.62869148649867L1399.0442735205197 374.62869148649867Q1393.9906432423154 374.62869148649867 1389.3083000865915 377.06268484498077Q1384.6259569308675 379.51730526582287 1381.5112705145048 382.9413976175858L1381.5112705145048 382.9413976175858Q1381.5112705145048 383.5395824260263 1381.5937787639448 384.6534437934672Q1381.655659951025 385.76730516090817 1381.655659951025 388.5107044547905Q1381.655659951025 391.25410374867283 1381.655659951025 396.6790211493575Q1381.655659951025 402.10393855004213 1381.5937787639448 411.30360836260996Q1381.5112705145048 420.50327817517785 1381.5112705145048 434.6121888294299L1381.5112705145048 434.6121888294299Q1385.224141739308 437.4380963727523 1389.6177060219916 438.9232448626735Q1393.9906432423154 440.4083933525948 1398.8998840839995 440.4083933525948ZM1478.7884966043478 481.8481616338702L1448.487341997482 481.8481616338702L1448.487341997482 477.3927161641064Q1453.1078039661259 477.3927161641064 1454.8817313290874 475.0824851797844Q1456.655658692049 472.7928812578225 1456.9650646274492 468.708722910539Q1457.2538435004894 464.6245645632555 1457.2538435004894 459.2821554120109L1457.2538435004894 459.2821554120109L1457.5632494358897 387.54123252386967Q1457.5632494358897 385.16912035246764 1457.62513062297 382.7970081810656Q1457.7076388724097 380.4042689473036 1458.1408071819703 377.88776733938147L1458.1408071819703 377.88776733938147Q1455.4799161375279 378.03215677590157 1452.8809062801656 378.1765462124217Q1450.2818964228036 378.34156271130183 1447.600378316001 378.485952147822L1447.600378316001 378.485952147822L1447.600378316001 372.23595225273664Q1454.1391570841267 372.23595225273664 1457.4807411864497 371.6583945066561Q1460.8223252887726 371.0602096982156 1462.3899820281338 370.1732460167349Q1463.937011705135 369.2656552728941 1464.988991885496 368.2343021548932L1464.988991885496 368.2343021548932L1469.4444373552599 368.2343021548932Q1469.58882679178 369.71945064481446 1469.7332162283 371.7202756937362Q1469.87760566482 373.7211007426579 1470.0219951013403 376.25822941294007L1470.0219951013403 376.25822941294007Q1474.4774405711044 372.23595225273664 1480.6449322167493 369.80195889425454Q1486.8124238623946 367.34733847341244 1493.04179669512 367.34733847341244L1493.04179669512 367.34733847341244Q1501.6639087616072 367.34733847341244 1509.0896512112138 371.8027839431762Q1516.51539366082 376.25822941294007 1521.115228567104 384.4884272945871Q1525.7150634733878 392.73925223859413 1525.7150634733878 404.1666447860439L1525.7150634733878 404.1666447860439Q1525.7150634733878 416.79040695037463 1520.4551625715833 426.2994826983428Q1515.174634607419 435.8085584463109 1506.5731496032915 441.0890864104754Q1497.9510375368043 446.3489873122799 1487.8437769803957 446.3489873122799L1487.8437769803957 446.3489873122799Q1482.6457572656711 446.3489873122799 1478.2728200453473 445.09073650831886Q1473.8998828250235 443.83248570435774 1470.0219951013403 441.4603735329557L1470.0219951013403 441.4603735329557L1470.0219951013403 466.10971305317673Q1470.0219951013403 469.08001003301933 1469.9601139142603 471.3696139549812Q1469.87760566482 473.6798449393032 1469.4444373552599 476.1963465472254L1469.4444373552599 476.1963465472254Q1471.816549526662 476.05195711070525 1474.1061534486237 475.9900759236252Q1476.4163844329457 475.9075676741851 1478.7884966043478 475.763178237665L1478.7884966043478 475.763178237665L1478.7884966043478 481.8481616338702ZM1487.5549981073552 440.4083933525948L1487.5549981073552 440.4083933525948Q1494.6919616839214 440.4083933525948 1499.8074731492059 436.03545613227107Q1504.9229846144901 431.6418918495873 1507.6870109707324 424.00987877638084Q1510.430410264615 416.3572386408143 1510.430410264615 406.5593840198059L1510.430410264615 406.5593840198059Q1510.430410264615 398.53545676175906 1508.1201792802929 391.1715954992328Q1505.830575358331 383.8283612990665 1500.8388262672067 379.2285263927826Q1495.8677042384422 374.62869148649867 1487.6993875438754 374.62869148649867L1487.6993875438754 374.62869148649867Q1482.6457572656711 374.62869148649867 1477.9840411723071 377.06268484498077Q1473.301698016583 379.51730526582287 1470.1870116002203 382.9413976175858L1470.1870116002203 382.9413976175858Q1470.1870116002203 383.5395824260263 1470.2488927873007 384.6534437934672Q1470.3314010367405 385.76730516090817 1470.3314010367405 388.5107044547905Q1470.3314010367405 391.25410374867283 1470.3314010367405 396.6790211493575Q1470.3314010367405 402.10393855004213 1470.2488927873007 411.30360836260996Q1470.1870116002203 420.50327817517785 1470.1870116002203 434.6121888294299L1470.1870116002203 434.6121888294299Q1473.8998828250235 437.4380963727523 1478.2728200453473 438.9232448626735Q1482.6457572656711 440.4083933525948 1487.5549981073552 440.4083933525948Z " fill="white" transform="matrix(0.573501559067446,0,0,0.573501559067446,0,66.67192411540042)"/></g></svg>